<svg xmlns="http://www.w3.org/2000/svg" version="1.1" xmlns:xlink="http://www.w3.org/1999/xlink" xmlns:svgjs="http://svgjs.dev/svgjs" width="100%" height="100%" viewBox="0 0 1000 600"><rect width="1000" height="600" x="0" y="0" fill="#ffffff"/><g><rect width="333.3333333333333" height="333.3333333333333" rx="13.333333333333334" ry="13.333333333333334" y="165.2984571697749" fill="#1c3580" transform="matrix(0.8736601904092901,0,0,0.8736601904092901,0,9.975285482762132)" x="143.07621765136716"/><path d="M313.12830506079314 406.9651306017562Q296.536043030447 406.9651306017562 280.4646143373763 397.49092418084103L280.4646143373763 397.49092418084103L265.2860427939206 405.1794163025261L261.34259038312086 405.1794163025261L261.34259038312086 359.2964794473088L265.2860427939206 359.2964794473088L280.63822544980144 392.50580509549036Q295.4695747684068 403.0464797784457 314.5667971351729 403.0464797784457L314.5667971351729 403.0464797784457Q330.29100360339334 403.0464797784457 340.5588608239663 394.737947969528Q350.82671804453923 386.42941616061023 350.82671804453923 371.4244557295797L350.82671804453923 371.4244557295797Q350.82671804453923 360.53655882177407 344.2046941848943 354.1873524245116Q337.6074719127388 347.86294761473846 322.7761225941334 344.11790790385317L322.7761225941334 344.11790790385317L293.13822554441197 336.429415782168Q277.612431776106 332.3123522589432 269.7503285419958 322.41651885070985Q261.8882253078856 312.49588385498714 261.8882253078856 298.9294154983364L261.8882253078856 298.9294154983364Q261.8882253078856 286.603026516151 266.7989396307683 277.0544153327679Q271.70965395365107 267.50580414938486 281.18386037456617 262.22306601416255Q290.633265207992 256.9651294664296 303.6789002273673 256.9651294664296L303.6789002273673 256.9651294664296Q319.9239400328632 256.9651294664296 332.771162352324 262.4958834765449L332.771162352324 262.4958834765449L345.8167973716993 256.9651294664296L349.7354481950097 256.9651294664296L349.7354481950097 293.398661488221L345.8167973716993 293.398661488221L332.96957505223844 267.3321930369597Q319.57671780801286 260.88378028974 303.85251133979244 260.88378028974L303.85251133979244 260.88378028974Q288.3267175714865 260.88378028974 279.3981460753361 268.8450898738074Q270.4695745791857 276.78159787038555 270.4695745791857 289.82723288976086L270.4695745791857 289.82723288976086Q270.4695745791857 299.47505042310115 276.7939793889589 305.0058044332165Q283.1431857862214 310.5365584433319 295.4695747684068 313.7607648169418L295.4695747684068 313.7607648169418L327.4140194546338 322.1437013883275Q342.96461481042905 326.06235221163786 350.55390058215687 335.6357649825103Q358.1431863538847 345.18437616589335 358.1431863538847 364.653622344999L358.1431863538847 364.653622344999Q358.1431863538847 384.47009074895504 345.9160037216565 395.7052098816109Q333.66401950193904 406.9651306017562 313.12830506079314 406.9651306017562L313.12830506079314 406.9651306017562Z " fill="#ffffff" transform="matrix(0.8736601904092901,0,0,0.8736601904092901,0,9.975285482762132)"/><path d="M611.5286041330586 406.9651306017562Q594.9363421027125 406.9651306017562 578.8649134096418 397.49092418084103L578.8649134096418 397.49092418084103L563.6863418661861 405.1794163025261L559.7428894553863 405.1794163025261L559.7428894553863 359.2964794473088L563.6863418661861 359.2964794473088L579.038524522067 392.50580509549036Q593.8698738406723 403.0464797784457 612.9670962074384 403.0464797784457L612.9670962074384 403.0464797784457Q628.6913026756588 403.0464797784457 638.9591598962318 394.737947969528Q649.2270171168046 386.42941616061023 649.2270171168046 371.4244557295797L649.2270171168046 371.4244557295797Q649.2270171168046 360.53655882177407 642.6049932571599 354.1873524245116Q636.0077709850042 347.86294761473846 621.1764216663988 344.11790790385317L621.1764216663988 344.11790790385317L591.5385246166775 336.429415782168Q576.0127308483715 332.3123522589432 568.1506276142612 322.41651885070985Q560.2885243801511 312.49588385498714 560.2885243801511 298.9294154983364L560.2885243801511 298.9294154983364Q560.2885243801511 286.603026516151 565.1992387030338 277.0544153327679Q570.1099530259165 267.50580414938486 579.5841594468317 262.22306601416255Q589.0335642802575 256.9651294664296 602.0791992996327 256.9651294664296L602.0791992996327 256.9651294664296Q618.3242391051286 256.9651294664296 631.1714614245894 262.4958834765449L631.1714614245894 262.4958834765449L644.2170964439648 256.9651294664296L648.1357472672752 256.9651294664296L648.1357472672752 293.398661488221L644.2170964439648 293.398661488221L631.3698741245039 267.3321930369597Q617.9770168802783 260.88378028974 602.2528104120579 260.88378028974L602.2528104120579 260.88378028974Q586.7270166437519 260.88378028974 577.7984451476016 268.8450898738074Q568.8698736514513 276.78159787038555 568.8698736514513 289.82723288976086L568.8698736514513 289.82723288976086Q568.8698736514513 299.47505042310115 575.1942784612244 305.0058044332165Q581.5434848584869 310.5365584433319 593.8698738406723 313.7607648169418L593.8698738406723 313.7607648169418L625.8143185268992 322.1437013883275Q641.3649138826945 326.06235221163786 648.9541996544223 335.6357649825103Q656.5434854261501 345.18437616589335 656.5434854261501 364.653622344999L656.5434854261501 364.653622344999Q656.5434854261501 384.47009074895504 644.316302793922 395.7052098816109Q632.0643185742045 406.9651306017562 611.5286041330586 406.9651306017562L611.5286041330586 406.9651306017562ZM827.9720581522377 403.39370200329597L716.5385255627829 403.39370200329597L716.5385255627829 399.6486622924107L732.9571764807039 396.9700908435656L732.9571764807039 266.96016922462013L716.5385255627829 264.45520888820016L716.5385255627829 260.53655806488973L824.0286057414379 260.53655806488973L824.0286057414379 301.43437583475634L819.2170977685124 301.43437583475634L805.4770182994365 265.00084381296494L752.6000337722347 265.00084381296494L752.6000337722347 329.2865585852478L775.8143196622258 329.2865585852478L786.3549943451811 303.3937012464116L790.9928912056815 303.3937012464116L790.9928912056815 359.81731278458426L786.3549943451811 359.81731278458426L775.6407085498007 333.5772332208978L752.6000337722347 333.5772332208978L752.6000337722347 399.10302736764595L808.6764230855571 399.10302736764595L823.3341612917374 359.81731278458426L827.9720581522377 359.81731278458426L827.9720581522377 403.39370200329597ZM969.5643211286892 403.39370200329597L917.0841620013165 403.39370200329597L917.0841620013165 399.6486622924107L933.5028129192375 396.9700908435656L933.5028129192375 265.00084381296494L904.0385269819411 265.00084381296494L890.4720586252903 300.36790757271615L885.2885268400254 300.36790757271615L885.2885268400254 260.53655806488973L1001.5335674024055 260.53655806488973L1001.5335674024055 300.36790757271615L996.1764245047153 300.36790757271615L982.7835672604897 265.00084381296494L953.1456702107683 265.00084381296494L953.1456702107683 396.9700908435656L969.5643211286892 399.6486622924107L969.5643211286892 403.39370200329597Z " fill="#1c3580" transform="matrix(0.8736601904092901,0,0,0.8736601904092901,0,9.975285482762132)"/></g></svg>